<svg width="198" height="198" viewBox="0 0 198 198" fill="none" xmlns="http://www.w3.org/2000/svg">
<circle cx="99" cy="99" r="99" fill="#21202C"/>
<path d="M69 138C66.25 138 63.8967 137.02 61.94 135.06C59.9833 133.1 59.0033 130.742 59 127.984V117.968C59 116.549 59.48 115.36 60.44 114.402C61.4 113.444 62.5867 112.963 64 112.96C65.4133 112.957 66.6017 113.437 67.565 114.402C68.5283 115.367 69.0067 116.556 69 117.968V127.984H129V117.968C129 116.549 129.48 115.36 130.44 114.402C131.4 113.444 132.587 112.963 134 112.96C135.413 112.957 136.602 113.437 137.565 114.402C138.528 115.367 139.007 116.556 139 117.968V127.984C139 130.738 138.022 133.097 136.065 135.06C134.108 137.023 131.753 138.003 129 138H69ZM94 77.1525L84.625 86.5426C83.625 87.5442 82.4383 88.025 81.065 87.9849C79.6917 87.9448 78.5033 87.4223 77.5 86.4174C76.5833 85.4158 76.1033 84.2472 76.06 82.9118C76.0167 81.5763 76.4967 80.4078 77.5 79.4062L95.5 61.3773C96 60.8765 96.5416 60.5226 97.125 60.3156C97.7083 60.1086 98.3333 60.0034 99 60.0001C99.6666 59.9967 100.292 60.1019 100.875 60.3156C101.458 60.5293 102 60.8832 102.5 61.3773L120.5 79.4062C121.5 80.4078 121.98 81.5763 121.94 82.9118C121.9 84.2472 121.42 85.4158 120.5 86.4174C119.5 87.419 118.313 87.9415 116.94 87.9849C115.567 88.0283 114.378 87.5475 113.375 86.5426L104 77.1525V112.96C104 114.379 103.52 115.569 102.56 116.531C101.6 117.492 100.413 117.971 99 117.968C97.5866 117.965 96.4 117.484 95.44 116.526C94.48 115.567 94 114.379 94 112.96V77.1525Z" fill="#706D96"/>
</svg>
